<svg xmlns="http://www.w3.org/2000/svg" width="21" height="50" viewBox="0 0 21 50">
    <defs>
        <linearGradient id="prefix__a" x1="47.891%" x2="47.891%" y1="2.391%" y2="100%">
            <stop offset="0%" stop-color="#3EAAFF"/>
            <stop offset="100%" stop-color="#5AB7FF"/>
        </linearGradient>
    </defs>
    <path fill="url(#prefix__a)" fill-rule="evenodd" d="M10.497 50c1.381 0 2.705-.242 3.971-.725 1.266-.484 2.383-1.186 3.35-2.106.967-.921 1.738-2.026 2.313-3.315.576-1.29.863-2.763.863-4.42V10.566c0-1.657-.287-3.13-.863-4.42-.575-1.289-1.346-2.394-2.313-3.315-.967-.92-2.084-1.622-3.35-2.106C13.202.242 11.878 0 10.498 0 9.115 0 7.791.242 6.525.725c-1.266.484-2.382 1.186-3.35 2.106C2.21 3.752 1.44 4.857.864 6.146.288 7.436 0 8.91 0 10.566v28.868c0 1.657.288 3.13.863 4.42.576 1.289 1.347 2.394 2.314 3.315.967.92 2.083 1.622 3.35 2.106 1.265.483 2.589.725 3.97.725zm0-7.044c-1.013 0-1.841-.334-2.486-1.002-.645-.667-.967-1.507-.967-2.52V10.566c0-1.013.322-1.853.967-2.52.645-.668 1.473-1.002 2.486-1.002 1.013 0 1.842.334 2.486 1.002.645.667.967 1.507.967 2.52v28.868c0 1.013-.322 1.853-.967 2.52-.644.668-1.473 1.002-2.486 1.002z"/>
</svg>
