<svg xmlns="http://www.w3.org/2000/svg" width="142" height="74" viewBox="0 0 142 74">
    <path fill="#414665" d="M61.7 1c2 0 3.917.35 5.75 1.05 1.833.7 3.45 1.717 4.85 3.05 1.4 1.333 2.517 2.933 3.35 4.8.833 1.867 1.25 4 1.25 6.4v41.8l-.006.476c-.051 2.207-.466 4.182-1.244 5.924-.833 1.867-1.95 3.467-3.35 4.8-1.4 1.333-3.017 2.35-4.85 3.05-1.833.7-3.75 1.05-5.75 1.05s-3.917-.35-5.75-1.05c-1.833-.7-3.45-1.717-4.85-3.05-1.4-1.333-2.517-2.933-3.35-4.8-.833-1.867-1.25-4-1.25-6.4V16.3l.006-.476c.051-2.207.466-4.182 1.244-5.924.833-1.867 1.95-3.467 3.35-4.8 1.4-1.333 3.017-2.35 4.85-3.05C57.783 1.35 59.7 1 61.7 1zm36.4 0c2 0 3.917.35 5.75 1.05 1.833.7 3.45 1.717 4.85 3.05 1.4 1.333 2.517 2.933 3.35 4.8.833 1.867 1.25 4 1.25 6.4v41.8l-.006.476c-.051 2.207-.466 4.182-1.244 5.924-.833 1.867-1.95 3.467-3.35 4.8-1.4 1.333-3.017 2.35-4.85 3.05-1.833.7-3.75 1.05-5.75 1.05s-3.917-.35-5.75-1.05c-1.833-.7-3.45-1.717-4.85-3.05-1.4-1.333-2.517-2.933-3.35-4.8-.833-1.867-1.25-4-1.25-6.4V16.3l.006-.476c.051-2.207.466-4.182 1.244-5.924.833-1.867 1.95-3.467 3.35-4.8 1.4-1.333 3.017-2.35 4.85-3.05C94.183 1.35 96.1 1 98.1 1zm38.43 60.99c2.34 0 4.35 1.41 4.35 4.11v2.97c0 2.7-2.01 4.11-4.35 4.11-2.37 0-4.35-1.41-4.35-4.11V66.1c0-2.7 1.98-4.11 4.35-4.11zm-.21-10.35L126.21 73h-3.06l10.11-21.36h3.06zM21.4 1.6v71.2H11.2V12.4L1 19.9V9.1l10.2-7.5h10.2zm21.7 61v10.2H32.9V62.6h10.2zm93.43 1.91c-.99 0-1.53.57-1.53 1.71v2.73c0 1.14.54 1.71 1.53 1.71.96 0 1.53-.57 1.53-1.71v-2.73c0-1.14-.57-1.71-1.53-1.71zM61.7 11.2c-1.467 0-2.667.483-3.6 1.45-.933.967-1.4 2.183-1.4 3.65v41.8l.006.29c.058 1.338.523 2.458 1.394 3.36.933.967 2.133 1.45 3.6 1.45s2.667-.483 3.6-1.45c.933-.967 1.4-2.183 1.4-3.65V16.3l-.006-.29c-.058-1.338-.523-2.458-1.394-3.36-.933-.967-2.133-1.45-3.6-1.45zm36.4 0c-1.467 0-2.667.483-3.6 1.45-.933.967-1.4 2.183-1.4 3.65v41.8l.006.29c.058 1.338.523 2.458 1.394 3.36.933.967 2.133 1.45 3.6 1.45s2.667-.483 3.6-1.45c.933-.967 1.4-2.183 1.4-3.65V16.3l-.006-.29c-.058-1.338-.523-2.458-1.394-3.36-.933-.967-2.133-1.45-3.6-1.45zm24.81 40.26c2.34 0 4.35 1.41 4.35 4.11v2.97c0 2.7-2.01 4.11-4.35 4.11-2.37 0-4.35-1.41-4.35-4.11v-2.97c0-2.7 1.98-4.11 4.35-4.11zm0 2.52c-.99 0-1.53.57-1.53 1.71v2.73c0 1.14.57 1.71 1.53 1.71.96 0 1.53-.57 1.53-1.71v-2.73c0-1.14-.57-1.71-1.53-1.71z"/>
</svg>
