<svg xmlns="http://www.w3.org/2000/svg" width="142" height="74" viewBox="0 0 142 74">
    <path fill="#414665" d="M97.2 1c2 0 3.917.35 5.75 1.05 1.833.7 3.45 1.717 4.85 3.05 1.4 1.333 2.517 2.933 3.35 4.8.778 1.742 1.193 3.717 1.244 5.924l.006.476v41.8l-.006.476c-.051 2.207-.466 4.182-1.244 5.924-.833 1.867-1.95 3.467-3.35 4.8-1.4 1.333-3.017 2.35-4.85 3.05-1.833.7-3.75 1.05-5.75 1.05s-3.917-.35-5.75-1.05c-1.833-.7-3.45-1.717-4.85-3.05-1.4-1.333-2.517-2.933-3.35-4.8-.778-1.742-1.193-3.717-1.244-5.924L82 58.1V16.3l.006-.476c.051-2.207.466-4.182 1.244-5.924.833-1.867 1.95-3.467 3.35-4.8 1.4-1.333 3.017-2.35 4.85-3.05C93.283 1.35 95.2 1 97.2 1zm39.33 60.99c2.34 0 4.35 1.41 4.35 4.11v2.97c0 2.7-2.01 4.11-4.35 4.11-2.37 0-4.35-1.41-4.35-4.11V66.1c0-2.7 1.98-4.11 4.35-4.11zm-.21-10.35L126.21 73h-3.06l10.11-21.36h3.06zM20.4 1.6v71.2H10.2V12.4L0 19.9V9.1l10.2-7.5h10.2zm22.9 61v10.2H33.1V62.6h10.2zm26.9-61v71.2H60V12.4l-10.2 7.5V9.1L60 1.6h10.2zm66.33 62.91c-.99 0-1.53.57-1.53 1.71v2.73c0 1.14.54 1.71 1.53 1.71.96 0 1.53-.57 1.53-1.71v-2.73c0-1.14-.57-1.71-1.53-1.71zM97.2 11.2c-1.467 0-2.667.483-3.6 1.45-.871.902-1.336 2.022-1.394 3.36l-.006.29v41.8l.006.29c.058 1.338.523 2.458 1.394 3.36.933.967 2.133 1.45 3.6 1.45s2.667-.483 3.6-1.45c.871-.902 1.336-2.022 1.394-3.36l.006-.29V16.3l-.006-.29c-.058-1.338-.523-2.458-1.394-3.36-.933-.967-2.133-1.45-3.6-1.45zm25.71 40.26c2.34 0 4.35 1.41 4.35 4.11v2.97c0 2.7-2.01 4.11-4.35 4.11-2.37 0-4.35-1.41-4.35-4.11v-2.97c0-2.7 1.98-4.11 4.35-4.11zm0 2.52c-.99 0-1.53.57-1.53 1.71v2.73c0 1.14.57 1.71 1.53 1.71.96 0 1.53-.57 1.53-1.71v-2.73c0-1.14-.57-1.71-1.53-1.71z"/>
</svg>
