<svg xmlns="http://www.w3.org/2000/svg" width="142" height="74" viewBox="0 0 142 74">
    <g fill="#414665">
        <path d="M122.91 62.65c2.34 0 4.35-1.41 4.35-4.11v-2.97c0-2.7-2.01-4.11-4.35-4.11-2.37 0-4.35 1.41-4.35 4.11v2.97c0 2.7 1.98 4.11 4.35 4.11zm3.3 10.35l10.11-21.36h-3.06L123.15 73h3.06zm-3.3-12.87c-.96 0-1.53-.57-1.53-1.71v-2.73c0-1.14.54-1.71 1.53-1.71.96 0 1.53.57 1.53 1.71v2.73c0 1.14-.57 1.71-1.53 1.71zm13.62 13.05c2.34 0 4.35-1.41 4.35-4.11V66.1c0-2.7-2.01-4.11-4.35-4.11-2.37 0-4.35 1.41-4.35 4.11v2.97c0 2.7 1.98 4.11 4.35 4.11zm0-2.52c-.99 0-1.53-.57-1.53-1.71v-2.73c0-1.14.54-1.71 1.53-1.71.96 0 1.53.57 1.53 1.71v2.73c0 1.14-.57 1.71-1.53 1.71zM21.4 72.8V1.6H11.2L1 9.1v10.8l10.2-7.5v60.4h10.2zm22.9 0V62.6H34.1v10.2h10.2zm26.9 0V1.6H61L50.8 9.1v10.8L61 12.4v60.4h10.2zm27.1.6c3 0 5.533-.617 7.6-1.85 2.067-1.233 3.667-2.717 4.8-4.45.533-.8.983-1.567 1.35-2.3.367-.733.65-1.633.85-2.7.2-1.067.35-2.317.45-3.75.1-1.433.15-3.25.15-5.45 0-2.667-.033-4.917-.1-6.75-.067-1.833-.267-3.383-.6-4.65-.333-1.267-.85-2.367-1.55-3.3-.7-.933-1.65-1.867-2.85-2.8 1.2-1 2.15-1.95 2.85-2.85.7-.9 1.217-1.917 1.55-3.05.333-1.133.533-2.433.6-3.9.067-1.467.1-3.267.1-5.4 0-1.933-.05-3.583-.15-4.95-.1-1.367-.317-2.55-.65-3.55s-.733-1.9-1.2-2.7c-.467-.8-1.033-1.633-1.7-2.5-1.333-1.733-3-3.083-5-4.05-2-.967-4.167-1.45-6.5-1.45s-4.5.483-6.5 1.45-3.667 2.317-5 4.05c-.667.867-1.217 1.7-1.65 2.5-.433.8-.817 1.7-1.15 2.7-.333 1-.567 2.183-.7 3.55s-.2 3.017-.2 4.95c0 2.133.033 3.933.1 5.4.067 1.467.267 2.767.6 3.9.333 1.133.85 2.15 1.55 3.05.7.9 1.65 1.85 2.85 2.85-1.2.933-2.15 1.867-2.85 2.8-.7.933-1.217 2.033-1.55 3.3-.333 1.267-.533 2.817-.6 4.65-.067 1.833-.1 4.083-.1 6.75v.5c.008 1.977.058 3.627.15 4.95.1 1.433.25 2.683.45 3.75.2 1.067.483 1.967.85 2.7.367.733.817 1.5 1.35 2.3 1.133 1.733 2.733 3.217 4.8 4.45 2.067 1.233 4.6 1.85 7.6 1.85zm0-41.8c-1.333 0-2.5-.483-3.5-1.45S93.3 28 93.3 26.6V16.2c0-1.4.5-2.583 1.5-3.55 1-.967 2.167-1.45 3.5-1.45 1.333 0 2.5.483 3.5 1.45s1.5 2.15 1.5 3.55v10.4c0 1.4-.5 2.583-1.5 3.55-1 .967-2.167 1.45-3.5 1.45zm0 31.6c-1.333 0-2.5-.483-3.5-1.45s-1.5-2.15-1.5-3.55v-14c0-1.4.5-2.583 1.5-3.55 1-.967 2.167-1.45 3.5-1.45 1.333 0 2.5.483 3.5 1.45s1.5 2.15 1.5 3.55v14c0 1.4-.5 2.583-1.5 3.55-1 .967-2.167 1.45-3.5 1.45z"/>
    </g>
</svg>
