<svg xmlns="http://www.w3.org/2000/svg" width="142" height="74" viewBox="0 0 142 74">
    <g fill="#414665">
        <path d="M123.288 62.794c2.306 0 4.287-1.428 4.287-4.163v-3.008c0-2.735-1.98-4.163-4.287-4.163-2.336 0-4.288 1.428-4.288 4.163v3.008c0 2.735 1.952 4.163 4.288 4.163zm3.252 10.484l9.965-21.636h-3.016l-9.965 21.636h3.016zm-3.252-13.036c-.947 0-1.508-.578-1.508-1.732v-2.765c0-1.155.532-1.733 1.508-1.733.946 0 1.508.578 1.508 1.733v2.765c0 1.154-.562 1.732-1.508 1.732zm13.424 13.218c2.307 0 4.288-1.428 4.288-4.163v-3.008c0-2.735-1.981-4.163-4.288-4.163-2.336 0-4.287 1.428-4.287 4.163v3.008c0 2.735 1.951 4.163 4.287 4.163zm0-2.552c-.975 0-1.508-.578-1.508-1.733V66.41c0-1.154.533-1.732 1.508-1.732.947 0 1.508.578 1.508 1.732v2.765c0 1.155-.561 1.733-1.508 1.733zM21.49 72.403V1.597H11.246L1 9.055v10.74l10.245-7.458v60.066h10.246zm23.002 0V62.26H34.247v10.143h10.245zm35.156 0V62.26H61.166l15.067-28.74c.803-1.526 1.44-2.818 1.908-3.88.47-1.06.804-2.12 1.005-3.181.2-1.061.335-2.172.402-3.332.067-1.16.1-2.602.1-4.326 0-2.387-.285-4.64-.854-6.762s-1.456-4.011-2.662-5.669c-1.272-1.657-2.862-2.967-4.77-3.928C69.451 1.481 67.158 1 64.48 1c-2.143 0-4.152.414-6.027 1.243-1.875.829-3.482 1.94-4.821 3.332-1.406 1.392-2.511 3.016-3.315 4.873-.803 1.856-1.205 3.845-1.205 5.966v5.57h10.245v-5.769c0-1.657.452-2.917 1.356-3.779.904-.861 2.126-1.292 3.666-1.292 1.273 0 2.244.248 2.913.746.67.497 1.172 1.11 1.507 1.84.335.729.519 1.574.552 2.535.034.962.05 1.873.05 2.735 0 1.923-.066 3.53-.2 4.823-.134 1.293-.67 2.801-1.607 4.525L49.113 62.856v9.547h30.535zM98.732 73c2.01 0 3.935-.348 5.776-1.044 1.841-.696 3.465-1.707 4.872-3.033 1.406-1.326 2.527-2.917 3.364-4.774.837-1.856 1.256-3.978 1.256-6.364v-41.57c0-2.386-.419-4.508-1.256-6.364-.837-1.857-1.958-3.448-3.364-4.774-1.407-1.326-3.03-2.337-4.872-3.033C102.667 1.348 100.741 1 98.732 1c-2.008 0-3.934.348-5.775 1.044-1.842.696-3.465 1.707-4.872 3.033-1.406 1.326-2.528 2.917-3.365 4.774-.837 1.856-1.255 3.978-1.255 6.364v41.57c0 2.386.418 4.508 1.255 6.364.837 1.857 1.96 3.448 3.365 4.774 1.407 1.326 3.03 2.337 4.872 3.033 1.841.696 3.767 1.044 5.775 1.044zm0-10.144c-1.473 0-2.678-.48-3.616-1.442-.937-.961-1.406-2.17-1.406-3.63V16.216c0-1.458.469-2.668 1.406-3.63.938-.96 2.143-1.441 3.616-1.441 1.474 0 2.679.48 3.616 1.442.938.961 1.407 2.17 1.407 3.63v41.569c0 1.458-.47 2.668-1.407 3.63-.937.96-2.142 1.441-3.616 1.441z"/>
    </g>
</svg>
