<svg xmlns="http://www.w3.org/2000/svg" width="215" height="50" viewBox="0 0 215 50">
    <g fill="none" fill-rule="evenodd">
        <path d="M0 0H214.286V50H0z"/>
        <path fill="#C60000" d="M23.931 23.798v11.479c0 2.766-1.718 4.085-2.083 4.395-.364.31-3.384 2.404-3.619 2.585-.234.181-.495.465-.833.276-.338-.19 0-.793 0-.793l6.535-17.942zm-18.868-6.49c.192-.336.798 0 .798 0l18.07 6.49-18.07 6.489s-.606.336-.798 0c-.191-.336.095-.595.278-.827.182-.233 2.291-3.232 2.603-3.594.313-.362 1.64-2.068 4.427-2.068l-.283-.006c-2.594-.11-3.842-1.713-4.144-2.063-.312-.362-2.421-3.36-2.603-3.593-.183-.233-.469-.491-.278-.828zM18.23 5.338c.235.181 3.255 2.275 3.62 2.586.364.31 2.082 1.628 2.082 4.395v11.479L17.396 5.855s-.338-.602 0-.792c.338-.19.599.094.833.275z"/>
        <path fill="#FFF" d="M77.608 14.413s2.057-2.663 7.316-2.094c-.52 1.654-1.354 4.395-1.354 4.395s-1.354-.181-2.786 0c.39.801 1.432 2.03 1.432 4.628 0 2.598-1.757 7.562-8.748 7.562-1.074 0-2.402-.33-2.402-.33s-.332.252-.332 1.008c0 .757.664 1.377 1.992 1.649 1.328.271 6.874.387 8.963 1.88 2.09 1.493 2.558 2.637 2.558 4.092 0 1.454-1.054 7-10.428 7-9.373 0-10.955-4.208-10.955-6.03 0-1.823 1.172-3.937 3.671-4.635-1.27-1.319-1.386-1.648-1.386-2.52 0-.873.742-2.696 2.792-3.704-1.699-1.28-3.671-2.89-3.671-6.38 0-3.49 2.832-7.788 9.041-7.788 1.934 0 3.496.66 4.297 1.267zm-8.085 20.58c-.508.406-1.054 1.105-1.054 2.093 0 2.133 3.554 2.909 5.214 2.909 1.66 0 4.53-.31 4.53-2.017 0-1.706-4.12-2.094-5.917-2.23-1.797-.135-2.773-.756-2.773-.756zm25.758-21.795c4.725 0 8.221 2.133 8.748 6.32 0 2.56-.097 13.128.371 14.544h-5.272l-1.074-1.726s-2.188 2.21-5.527 2.21c-3.34 0-7.186-2.346-7.186-6.786 0-4.44 4.55-7.388 12.361-6.7-.058-1.367-.703-3.034-3.574-3.054-2.87-.019-5.272 1.319-5.272 1.319l-2.265-4.053s3.964-2.074 8.69-2.074zm-41.341-.052c7.212 0 7.264 6.8 7.264 6.8v14.038h-6.666V20.592s-.39-1.913-2.603-1.913-3.88 1.5-3.88 1.5v13.805h-6.691V20.586c-.008-.11-.158-1.881-2.63-1.881-2.552 0-3.88 1.421-3.88 1.421v13.858h-6.457V13.689h5.311l.73 2.275s3.02-2.818 6.926-2.818c3.905 0 5.363 3.102 5.363 3.102s3.307-3.102 7.213-3.102zM97.624 24.89s-2.265-.155-3.632.194-2.226 1.493-2.226 2.307c0 .815.644 2.172 2.812 2.172 2.167 0 3.046-.853 3.046-.853zm-24.41-7.058c-1.992 0-3.047 2.133-3.047 3.228 0 1.096.88 3.229 3.047 3.229 2.167 0 3.183-1.59 3.183-3.18s-1.66-3.277-3.183-3.277z"/>
        <path fill="#FFF" fill-rule="nonzero" d="M116.997 22.187v-6.226h.05l2.677 6.226h1.288l2.676-6.226h.051v6.226h1.492v-9.036h-1.747l-3.084 7.087h-.051l-3.097-7.087h-1.746v9.036h1.49zm10.337 0l.828-2.265h3.811l.828 2.265h1.594l-3.48-9.036h-1.695l-3.48 9.036h1.594zm4.193-3.48h-2.919l1.44-3.961h.051l1.428 3.961zm9.776 3.48v-1.265h-4.92v-7.77h-1.478v9.035h6.398zm4.537 0v-7.77h2.983V13.15h-7.456v1.266h2.982v7.77h1.491zm4.385 0l.828-2.265h3.811l.829 2.265h1.593l-3.48-9.036h-1.695l-3.48 9.036h1.594zm4.193-3.48H151.5l1.44-3.961h.052l1.427 3.961zm11.357 3.658c.807 0 1.542-.102 2.205-.304.637-.203 1.19-.49 1.657-.86v-3.823h-3.9v1.266h2.408v1.86c-.314.186-.641.325-.981.418-.382.101-.79.152-1.224.152-1.104 0-1.92-.304-2.447-.911-.484-.574-.726-1.393-.726-2.456 0-1.113.272-1.97.815-2.569.493-.574 1.169-.86 2.027-.86.697 0 1.253.143 1.67.43.416.295.688.73.815 1.303h1.504c-.161-1.004-.569-1.759-1.223-2.265-.671-.515-1.593-.772-2.766-.772-1.36 0-2.43.464-3.212 1.392-.748.87-1.122 1.983-1.122 3.341 0 1.35.374 2.447 1.122 3.29.807.912 1.933 1.368 3.378 1.368zm5.837-.178l.829-2.265h3.81l.83 2.265h1.592l-3.48-9.036H173.5l-3.48 9.036h1.593zm4.194-3.48h-2.92l1.441-3.961h.051l1.428 3.961zm4.868 3.48v-6.226h.051l2.677 6.226h1.287l2.677-6.226h.051v6.226h1.491v-9.036h-1.746l-3.084 7.087h-.051l-3.098-7.087h-1.746v9.036h1.491zm11.127 0v-9.036h-1.49v9.036h1.49zm2.894 0v-6.606h.05l4.551 6.606h1.453v-9.036h-1.504v6.518h-.051l-4.5-6.518h-1.49v9.036h1.49zm11.573.178c.807 0 1.542-.102 2.205-.304.637-.203 1.19-.49 1.657-.86v-3.823h-3.9v1.266h2.409v1.86c-.315.186-.642.325-.982.418-.382.101-.79.152-1.223.152-1.105 0-1.92-.304-2.448-.911-.484-.574-.726-1.393-.726-2.456 0-1.113.272-1.97.816-2.569.492-.574 1.168-.86 2.026-.86.697 0 1.254.143 1.67.43.416.295.688.73.816 1.303h1.504c-.162-1.004-.57-1.759-1.224-2.265-.671-.515-1.593-.772-2.766-.772-1.36 0-2.43.464-3.212 1.392-.747.87-1.121 1.983-1.121 3.341 0 1.35.374 2.447 1.121 3.29.808.912 1.933 1.368 3.378 1.368zm-90.061 15.01l.828-2.266h3.811l.828 2.265h1.594l-3.48-9.036h-1.695l-3.48 9.036h1.594zm4.193-3.481h-2.919l1.44-3.961h.051l1.428 3.961zm7.163 3.657c1.198 0 2.129-.303 2.791-.91.663-.625.994-1.524.994-2.696v-5.607h-1.49v5.632c0 .768-.183 1.346-.549 1.734-.374.37-.956.557-1.746.557-.807 0-1.39-.186-1.746-.557-.366-.372-.548-.95-.548-1.734v-5.632h-1.491v5.607c0 1.172.335 2.075 1.006 2.708.646.599 1.572.898 2.779.898zm8.96-.177v-7.77h2.983v-1.266h-7.457v1.266h2.983v7.77h1.491zm5.175 0v-3.999h4.614v4h1.491v-9.037h-1.491v3.771h-4.614v-3.77h-1.491v9.035h1.491zm11.548.177c1.393 0 2.49-.443 3.288-1.328.765-.853 1.147-1.97 1.147-3.354 0-1.4-.382-2.523-1.147-3.367-.799-.894-1.895-1.341-3.288-1.341-1.41 0-2.507.451-3.289 1.354-.756.852-1.134 1.97-1.134 3.354 0 1.375.378 2.489 1.134 3.34.799.895 1.895 1.342 3.289 1.342zm0-1.303c-.952 0-1.683-.312-2.193-.937-.492-.599-.739-1.413-.739-2.442 0-1.038.247-1.856.74-2.455.526-.633 1.257-.95 2.192-.95.951 0 1.678.3 2.18.899.5.616.751 1.451.751 2.506 0 1.054-.25 1.881-.752 2.48-.51.6-1.236.899-2.18.899zm9.24 1.303c1.198 0 2.129-.303 2.792-.91.662-.625.994-1.524.994-2.696v-5.607h-1.491v5.632c0 .768-.183 1.346-.549 1.734-.373.37-.955.557-1.746.557-.807 0-1.389-.186-1.746-.557-.365-.372-.548-.95-.548-1.734v-5.632h-1.491v5.607c0 1.172.335 2.075 1.007 2.708.646.599 1.572.898 2.778.898zm6.68-.177v-9.036h-1.492v9.036h1.491zm5.174 0v-7.77h2.982v-1.266h-7.456v1.266h2.983v7.77h1.49zm7.94 0V33.78l3.595-5.442h-1.797l-2.537 4.063-2.549-4.063h-1.797l3.594 5.442v3.594h1.491z"/>
    </g>
</svg>
