<svg xmlns="http://www.w3.org/2000/svg" width="200" height="50" viewBox="0 0 200 50">
    <defs>
        <radialGradient id="prefix__a" cx="50%" cy="33.887%" r="51.555%" fx="50%" fy="33.887%">
            <stop offset="0%" stop-color="#F6F3F8"/>
            <stop offset="100%" stop-color="#899BB7"/>
        </radialGradient>
    </defs>
    <g fill="none" fill-rule="evenodd">
        <circle cx="29" cy="25" r="16" fill="url(#prefix__a)"/>
        <path fill="#002A5A" d="M28.855 7c9.862 0 17.856 7.994 17.856 17.855 0 9.862-7.994 17.856-17.856 17.856C18.995 42.71 11 34.717 11 24.855 11 14.995 18.994 7 28.855 7zm0 3.721c-7.806 0-14.134 6.328-14.134 14.134S21.05 38.99 28.855 38.99 42.99 32.661 42.99 24.855s-6.328-14.134-14.134-14.134z"/>
        <path fill="#FFF" fill-rule="nonzero" d="M56.33 21.482c1.51 0 2.186-.802 2.186-2.221v-.458c0-.848-.252-1.34-.802-1.603.516-.32.802-.641.802-1.512v-.297c0-1.065-.561-2.061-2.072-2.061h-1.706v8.152h1.591zm.102-4.809h-.527v-2.244h.481c.767 0 1.03.378 1.03 1.1 0 .743-.205 1.144-.984 1.144zm-.023 3.64h-.504v-2.61h.516c.847 0 .996.424.996 1.237 0 .801-.069 1.374-1.008 1.374zm3.962 1.169v-3.447c0-.95.698-1.259 1.19-1.259.126 0 .24.023.355.069v-1.237c-.675 0-1.065.264-1.545.687v-.618h-1.168v5.805h1.168zm2.839-6.984V13.33h-1.168v1.168h1.168zm0 6.984v-5.805h-1.168v5.805h1.168zm2.507 0v-1.1c-.515 0-.72-.034-.72-.572v-3.217h.72v-.916h-.72v-1.763h-1.169v1.763h-.584v.916h.584v3.526c0 .618.355 1.363 1.408 1.363h.481zm1.271-6.984V13.33H65.82v1.168h1.168zm0 6.984v-5.805H65.82v5.805h1.168zm2.153.068c1.007 0 1.74-.79 1.74-1.751 0-.687-.275-1.306-1.145-1.638l-.687-.274c-.435-.172-.492-.378-.492-.596 0-.297.206-.584.572-.584.31 0 .584.206.596.596h1.099c-.012-.962-.699-1.695-1.649-1.695-.939 0-1.717.71-1.717 1.695 0 .778.446 1.328 1.179 1.603l.56.206c.447.171.585.389.585.71 0 .389-.32.63-.653.63-.435 0-.584-.333-.63-.653H67.4c.046 1.145.825 1.751 1.74 1.751zm3.32-.068v-3.905c0-.515.149-.8.584-.8.366 0 .572.262.572.686v4.019h1.168v-4.454c0-1.042-.618-1.42-1.202-1.42-.538 0-.859.264-1.1.63h-.022V13.33h-1.168v8.152h1.168zm7.087 0l1.671-8.152h-1.236l-.939 5.69h-.023l-.927-5.69h-1.237l1.66 8.152h1.03zm3.125-6.984V13.33h-1.167v1.168h1.167zm0 6.984v-5.805h-1.167v5.805h1.167zm1.787 0v-3.447c0-.95.698-1.259 1.19-1.259.126 0 .24.023.355.069v-1.237c-.675 0-1.065.264-1.545.687v-.618h-1.168v5.805h1.168zm3.411 2.415c1.237 0 1.752-.916 1.752-1.706v-6.514h-1.168v.527c-.297-.332-.526-.596-1.099-.596-.56 0-.847.218-1.042.527-.135.218-.176.513-.182 1.192v2.426c0 .641.056.996.194 1.248.206.378.55.55 1.019.55.47 0 .836-.218 1.087-.596h.023V22.1c0 .366-.16.63-.538.63-.4 0-.607-.298-.618-.573H86.13c.149 1.328 1.03 1.74 1.74 1.74zm0-3.514c-.446 0-.572-.321-.572-.687v-2.13c0-.47.172-.79.572-.79.355 0 .584.298.584.721v2.256c0 .366-.252.63-.584.63zm3.538-5.885V13.33h-1.168v1.168h1.168zm0 6.984v-5.805h-1.168v5.805h1.168zm1.786 0v-3.905c0-.515.15-.8.584-.8.366 0 .573.262.573.686v4.019h1.167v-4.454c0-1.042-.618-1.42-1.202-1.42-.538 0-.858.264-1.099.63h-.023v-.561h-1.168v5.805h1.168zm6 0V13.33h-1.168v8.152h1.168zm2.255.068c1.008 0 1.74-.79 1.74-1.751 0-.687-.274-1.306-1.145-1.638l-.687-.274c-.435-.172-.492-.378-.492-.596 0-.297.206-.584.573-.584.309 0 .583.206.595.596h1.099c-.011-.962-.698-1.695-1.649-1.695-.938 0-1.717.71-1.717 1.695 0 .778.447 1.328 1.18 1.603l.56.206c.447.171.584.389.584.71 0 .389-.32.63-.652.63-.435 0-.584-.333-.63-.653h-1.1c.047 1.145.825 1.751 1.741 1.751zm3.824 0v-1.099c-.446-.046-.572-.172-.572-.607V13.33h-1.168v6.595c0 1.35.664 1.625 1.74 1.625zm1.18 0c.56 0 .812-.24 1.121-.664h.023v.596h1.168V17.44c0-1.214-.779-1.832-1.752-1.832-.526 0-.961.183-1.27.493-.31.309-.493.744-.527 1.259h1.133c.069-.378.367-.584.664-.584.435 0 .584.298.584.687v.607c-.24-.012-.4-.035-.56-.035-1.466 0-1.844.642-1.844 1.97 0 1.282.721 1.545 1.26 1.545zm.514-1.03c-.377 0-.606-.298-.606-.744 0-.619.412-.825.916-.825.103 0 .194.012.32.035v.79c0 .47-.24.744-.63.744zm3.481.962v-3.905c0-.515.149-.8.584-.8.366 0 .572.262.572.686v4.019h1.168v-4.454c0-1.042-.618-1.42-1.202-1.42-.538 0-.859.264-1.1.63h-.022v-.561h-1.168v5.805h1.168zm4.156.068c.584 0 .813-.263 1.11-.595v.527h1.168V13.33h-1.167v2.874h-.023c-.252-.378-.619-.596-1.076-.596-.562 0-.848.218-1.042.527-.136.218-.176.513-.183 1.192v2.426c0 .641.057.996.194 1.248.206.378.55.55 1.02.55zm.527-1.167c-.401 0-.573-.321-.573-.79v-2.13c0-.366.126-.687.573-.687.332 0 .584.263.584.63v2.255c0 .424-.23.722-.584.722zm3.904 1.167c1.007 0 1.74-.79 1.74-1.751 0-.687-.275-1.306-1.145-1.638l-.687-.274c-.435-.172-.492-.378-.492-.596 0-.297.206-.584.572-.584.31 0 .584.206.596.596h1.099c-.012-.962-.699-1.695-1.649-1.695-.939 0-1.717.71-1.717 1.695 0 .778.446 1.328 1.18 1.603l.56.206c.447.171.584.389.584.71 0 .389-.32.63-.653.63-.435 0-.583-.333-.63-.653h-1.098c.045 1.145.824 1.751 1.74 1.751zM56.478 36.747v-4.64h2.687V30.64h-2.687v-3.297h3.084v-1.466H54.92v10.87h1.557zm5.099-9.312v-1.557H60.02v1.557h1.557zm0 9.312v-7.74H60.02v7.74h1.557zm2.381 0v-5.205c0-.687.198-1.069.779-1.069.488 0 .763.351.763.916v5.358h1.557V30.81c0-1.39-.824-1.893-1.603-1.893-.717 0-1.145.351-1.465.84h-.031v-.748h-1.557v7.74h1.557zm5.343.092c.748 0 1.084-.32 1.496-.886h.03v.794h1.558v-5.389c0-1.618-1.038-2.442-2.336-2.442-.702 0-1.282.244-1.695.656-.412.413-.656.993-.702 1.68h1.512c.091-.504.488-.779.885-.779.58 0 .778.397.778.916v.809c-.32-.015-.534-.046-.748-.046-1.954 0-2.457.855-2.457 2.626 0 1.71.961 2.06 1.679 2.06zm.687-1.374c-.504 0-.81-.397-.81-.992 0-.825.55-1.1 1.222-1.1.137 0 .26.016.427.046v1.054c0 .625-.32.992-.84.992zm4.64 1.282v-5.205c0-.687.199-1.069.78-1.069.488 0 .762.351.762.916v5.358h1.557V30.81c0-1.39-.824-1.893-1.602-1.893-.718 0-1.145.351-1.466.84h-.03v-.748h-1.557v7.74h1.557zm6.336.092c.717 0 1.282-.26 1.694-.687.397-.412.626-1.008.626-1.649h-1.557c-.03.336-.168.779-.763.779-.473 0-.764-.275-.764-.764v-3.16c0-.58.29-.885.764-.885.473 0 .763.29.763.916h1.557c0-1.435-.885-2.473-2.32-2.473-.947 0-1.664.443-2.03 1.114-.214.397-.29.947-.29 1.573v2.549c0 .626.076 1.175.29 1.572.366.672 1.083 1.115 2.03 1.115zm4.335-9.404v-1.557h-1.557v1.557H85.3zm0 9.312v-7.74h-1.557v7.74H85.3zm2.244.092c.748 0 1.084-.32 1.496-.886h.03v.794h1.558v-5.389c0-1.618-1.038-2.442-2.336-2.442-.702 0-1.282.244-1.694.656-.412.413-.657.993-.702 1.68h1.51c.092-.504.49-.779.886-.779.58 0 .779.397.779.916v.809c-.32-.015-.535-.046-.748-.046-1.954 0-2.458.855-2.458 2.626 0 1.71.962 2.06 1.68 2.06zm.687-1.374c-.504 0-.809-.397-.809-.992 0-.825.55-1.1 1.221-1.1.138 0 .26.016.428.046v1.054c0 .625-.32.992-.84.992zm5.313 1.374v-1.466c-.596-.06-.764-.229-.764-.809v-8.686h-1.557v8.793c0 1.801.886 2.168 2.32 2.168zm4.976 0c2.015 0 2.687-1.359 2.687-3.19 0-1.588-.26-2.459-1.634-2.978l-1.19-.473c-.81-.32-.886-.61-.886-1.45 0-.717.199-1.404 1.054-1.404.793 0 1.099.595 1.099 1.312v.352h1.557v-.764c0-1.206-1.038-2.457-2.595-2.457-1.786 0-2.672 1.328-2.672 2.976 0 1.359.351 2.244 1.695 2.794l1.114.458c.763.305.9.488.9 1.648 0 .993-.076 1.619-1.129 1.619-.794 0-1.1-.55-1.1-1.115v-.488h-1.556v.58c0 1.465 1.145 2.58 2.656 2.58zm5.48 0c.718 0 1.283-.26 1.695-.687.397-.412.626-1.008.626-1.649h-1.557c-.03.336-.168.779-.764.779-.473 0-.763-.275-.763-.764v-1.053h3.084v-2.137c0-1.359-.886-2.412-2.32-2.412-.947 0-1.665.443-2.03 1.114-.215.397-.291.947-.291 1.573v2.549c0 .626.076 1.175.29 1.572.366.672 1.084 1.115 2.03 1.115zm.764-4.595h-1.527v-.886c0-.58.29-.885.763-.885.474 0 .764.305.764.885v.886zm3.8 4.503v-4.595c0-1.267.932-1.679 1.588-1.679.168 0 .32.03.474.092v-1.65c-.901 0-1.42.352-2.061.917v-.824h-1.557v7.74h1.557zm4.962 0l2.015-7.74h-1.649l-1.038 4.947h-.03l-1.038-4.946h-1.649l2.015 7.74h1.374zm3.74-9.312v-1.557h-1.557v1.557h1.557zm0 9.312v-7.74h-1.557v7.74h1.557zm3.236.092c.718 0 1.283-.26 1.695-.687.397-.412.626-1.008.626-1.649h-1.557c-.03.336-.168.779-.764.779-.473 0-.763-.275-.763-.764v-3.16c0-.58.29-.885.763-.885.474 0 .764.29.764.916h1.557c0-1.435-.886-2.473-2.32-2.473-.947 0-1.665.443-2.031 1.114-.214.397-.29.947-.29 1.573v2.549c0 .626.076 1.175.29 1.572.366.672 1.084 1.115 2.03 1.115zm4.962 0c.717 0 1.282-.26 1.694-.687.397-.412.626-1.008.626-1.649h-1.557c-.03.336-.168.779-.763.779-.474 0-.764-.275-.764-.764v-1.053h3.084v-2.137c0-1.359-.885-2.412-2.32-2.412-.947 0-1.664.443-2.03 1.114-.214.397-.29.947-.29 1.573v2.549c0 .626.076 1.175.29 1.572.366.672 1.083 1.115 2.03 1.115zm.763-4.595h-1.527v-.886c0-.58.29-.885.764-.885.473 0 .763.305.763.885v.886zm4.29 4.595c1.343 0 2.32-1.054 2.32-2.336 0-.916-.367-1.74-1.527-2.183l-.916-.366c-.58-.23-.656-.504-.656-.794 0-.397.275-.779.763-.779.412 0 .779.275.794.794h1.466c-.016-1.282-.932-2.26-2.199-2.26-1.251 0-2.29.947-2.29 2.26 0 1.038.596 1.771 1.573 2.137l.748.275c.595.23.778.52.778.947 0 .519-.427.84-.87.84-.58 0-.778-.443-.84-.87h-1.465c.061 1.526 1.1 2.335 2.32 2.335zm7.815 0c1.39 0 2.473-1.176 2.473-2.52v-.67h-1.557v.534c0 .854-.55 1.099-.977 1.099-.702 0-.946-.489-.946-1.115v-5.556c0-.733.183-1.267.962-1.267.595 0 .961.519.961 1.13v.518h1.557v-.61c0-1.512-1.068-2.595-2.503-2.595-1.511 0-2.534 1.083-2.534 2.503v5.984c0 1.985 1.374 2.565 2.564 2.565zm5.374 0c.946 0 1.664-.443 2.03-1.115.214-.397.29-.946.29-1.572v-2.55c0-.625-.076-1.175-.29-1.572-.366-.671-1.084-1.114-2.03-1.114-.947 0-1.664.443-2.03 1.114-.214.397-.29.947-.29 1.573v2.549c0 .626.076 1.175.29 1.572.366.672 1.083 1.115 2.03 1.115zm0-1.557c-.473 0-.763-.306-.763-.886v-3.038c0-.58.29-.885.763-.885.473 0 .763.305.763.885v3.038c0 .58-.29.886-.763.886zm4.564 1.465v-5.205c0-.687.199-1.069.779-1.069.488 0 .763.351.763.916v5.358h1.557v-5.205c0-.687.199-1.069.779-1.069.488 0 .763.351.763.916v5.358h1.557V30.81c0-1.39-.916-1.893-1.694-1.893-.825 0-1.237.351-1.619.778-.274-.381-.717-.778-1.389-.778-.717 0-1.145.351-1.465.84h-.03v-.748h-1.558v7.74h1.557zm8.58 0v-5.205c0-.687.198-1.069.778-1.069.488 0 .763.351.763.916v5.358h1.557v-5.205c0-.687.199-1.069.779-1.069.488 0 .763.351.763.916v5.358h1.557V30.81c0-1.39-.916-1.893-1.694-1.893-.825 0-1.237.351-1.618.778-.275-.381-.718-.778-1.39-.778-.717 0-1.144.351-1.465.84h-.03v-.748h-1.558v7.74h1.557zm8.579-9.312v-1.557h-1.557v1.557h1.557zm0 9.312v-7.74h-1.557v7.74h1.557zm2.87.092c1.343 0 2.32-1.054 2.32-2.336 0-.916-.366-1.74-1.527-2.183l-.916-.366c-.58-.23-.656-.504-.656-.794 0-.397.275-.779.763-.779.412 0 .779.275.794.794h1.466c-.016-1.282-.932-2.26-2.199-2.26-1.251 0-2.29.947-2.29 2.26 0 1.038.596 1.771 1.573 2.137l.748.275c.595.23.778.52.778.947 0 .519-.427.84-.87.84-.58 0-.778-.443-.84-.87h-1.465c.061 1.526 1.1 2.335 2.32 2.335zm4.915 0c1.343 0 2.32-1.054 2.32-2.336 0-.916-.366-1.74-1.526-2.183l-.916-.366c-.58-.23-.656-.504-.656-.794 0-.397.274-.779.763-.779.412 0 .778.275.794.794h1.465c-.015-1.282-.931-2.26-2.198-2.26-1.252 0-2.29.947-2.29 2.26 0 1.038.595 1.771 1.572 2.137l.748.275c.596.23.779.52.779.947 0 .519-.428.84-.87.84-.58 0-.779-.443-.84-.87h-1.465c.06 1.526 1.099 2.335 2.32 2.335zm4.427-9.404v-1.557h-1.557v1.557h1.557zm0 9.312v-7.74h-1.557v7.74h1.557zm3.007.092c.947 0 1.664-.443 2.03-1.115.214-.397.29-.946.29-1.572v-2.55c0-.625-.076-1.175-.29-1.572-.366-.671-1.083-1.114-2.03-1.114-.946 0-1.664.443-2.03 1.114-.214.397-.29.947-.29 1.573v2.549c0 .626.076 1.175.29 1.572.366.672 1.084 1.115 2.03 1.115zm0-1.557c-.473 0-.763-.306-.763-.886v-3.038c0-.58.29-.885.763-.885.474 0 .764.305.764.885v3.038c0 .58-.29.886-.764.886zm4.565 1.465v-5.205c0-.687.198-1.069.778-1.069.489 0 .764.351.764.916v5.358h1.557V30.81c0-1.39-.825-1.893-1.603-1.893-.718 0-1.145.351-1.466.84h-.03v-.748h-1.557v7.74h1.557z"/>
        <path fill="#FFF" d="M28.818 39.634c.248.004.45.06.544.075.01.13.027.304.048.448l-.09.02c-.054-.195-.122-.314-.268-.377-.074-.036-.192-.058-.302-.06-.476-.007-.733.34-.74.817-.009.556.274.919.741.926.295.005.441-.129.593-.415l.086.03c-.043.138-.121.345-.166.434-.084.016-.31.064-.529.06-.69-.01-1.034-.475-1.026-.98.01-.588.463-.988 1.109-.978zm2.165-.114c.01.071.045.285.073.436l-.085.024c-.036-.095-.071-.152-.11-.21-.055-.089-.124-.102-.296-.084l-.272.03c-.09.009-.094.018-.085.101l.068.635.318-.035c.215-.023.225-.067.239-.266l.089-.01.063.592-.09.01c-.059-.203-.085-.23-.291-.208l-.316.034.061.571c.022.201.087.211.23.199l.267-.029c.175-.018.201-.047.256-.129.049-.066.096-.19.127-.28l.089.014c-.01.076-.055.38-.075.47l-1.394.148-.009-.08c.265-.049.282-.077.257-.312l-.121-1.133c-.028-.256-.06-.267-.278-.264l-.009-.08.878-.094c.27-.029.382-.044.416-.05zm-4.262.009l.768.09-.01.08c-.24-.003-.265.006-.293.253l-.133 1.138c-.029.246-.007.257.228.31l-.01.081-.768-.09.01-.08c.238.002.262-.007.29-.25l.133-1.138c.029-.247.007-.261-.225-.314l.01-.08zm5.632-.261c.033.1.068.21.13.388l-.084.036c-.088-.176-.205-.343-.47-.287-.221.047-.263.224-.232.37.041.195.186.268.446.34.376.103.55.202.607.47.063.296-.146.577-.51.654-.17.036-.327.019-.452-.002-.04-.074-.114-.26-.166-.407l.083-.041c.096.177.272.396.566.334.203-.043.298-.21.259-.394-.046-.217-.18-.28-.458-.363-.33-.099-.525-.199-.58-.461-.054-.252.105-.533.477-.612.158-.033.323-.024.384-.025zm-7.615-.138l.716.156-.018.08c-.213-.024-.232.007-.215.12.025.222.108.828.184 1.334.229-.33.515-.75.725-1.076.098-.15.07-.182-.155-.261l.017-.079.649.142-.018.079c-.194-.016-.248-.001-.405.23-.116.17-.712 1.029-.927 1.348l-.093-.02c-.067-.49-.165-1.203-.234-1.655-.034-.226-.075-.265-.244-.32l.018-.078zm-1.465-.519l.695.242c.199.069.324.14.404.244.087.11.118.258.06.424-.081.234-.282.33-.514.347.02.101.073.325.112.476.05.18.079.265.118.355.046.105.098.157.155.195l-.037.072c-.035-.012-.064-.025-.099-.04-.194-.083-.283-.172-.344-.382-.052-.174-.09-.38-.13-.55-.024-.106-.054-.134-.193-.183l-.095-.033-.149.428c-.08.232-.055.256.155.353l-.026.077-.728-.253.027-.076c.234.054.257.05.338-.182l.378-1.088c.08-.232.053-.25-.154-.35l.027-.076zm11.59-.172c.058.117.138.272.212.398l-.077.051c-.123-.16-.23-.246-.389-.25-.082-.006-.2.018-.302.057-.445.17-.554.588-.384 1.033.198.52.596.751 1.032.585.275-.105.362-.283.396-.605l.091-.004c.012.143.016.364.008.463-.072.046-.264.175-.469.253-.644.246-1.137-.057-1.317-.528-.21-.55.063-1.09.667-1.32.231-.09.439-.113.533-.133zm-13.075-.531l.796.383c.244.117.347.164.38.176-.03.066-.113.266-.169.41l-.084-.025c.019-.1.02-.167.017-.236 0-.105-.051-.152-.208-.227l-.247-.12c-.08-.038-.09-.033-.125.043l-.277.574.289.14c.195.093.227.06.343-.102l.08.04-.257.535-.08-.039c.055-.203.047-.24-.14-.33l-.286-.137-.249.517c-.088.182-.038.226.09.29l.243.117c.158.076.196.065.285.025.076-.03.182-.11.256-.171l.068.058c-.048.06-.247.294-.31.36l-1.265-.608.035-.073c.251.098.28.083.383-.13l.494-1.027c.111-.231.09-.258-.097-.37l.035-.073zm1.955 1.004c-.032.01-.05.035-.074.106l-.232.667.13.046c.143.05.24.059.328.025.134-.042.216-.136.267-.283.1-.292-.056-.465-.266-.538-.079-.028-.129-.033-.153-.023zm13.514-.738c.298.544.115 1.086-.35 1.341-.486.267-1.042.092-1.304-.383-.248-.453-.158-1.05.376-1.342.432-.238 1.001-.12 1.278.384zm-1.277-.263c-.284.156-.411.535-.151 1.008.258.47.706.675 1.066.478.306-.168.41-.522.143-1.01-.292-.531-.727-.658-1.058-.476zm-14.775-.4c.137.085.25.205.295.247-.046.095-.097.199-.176.37l-.085-.032c.059-.188.09-.39-.141-.533-.191-.12-.344-.02-.424.107-.105.169-.05.322.088.553.199.335.256.527.111.76-.16.257-.505.314-.82.118-.148-.092-.25-.213-.325-.314.023-.081.097-.266.162-.409l.089.028c-.054.194-.078.475.176.633.177.11.36.054.46-.105.117-.188.064-.327-.078-.579-.17-.3-.242-.507-.1-.735.135-.218.445-.31.768-.11zm17.66-1.684l.05.064c-.179.175-.188.215-.06.371l.69.868c.198.237.213.243.43.107l.05.064-.607.471-.05-.064c.173-.163.17-.182-.022-.424l-.72-.932c.137.563.343 1.448.419 1.71l-.06.046c-.238-.147-.983-.573-1.476-.851.58.827.718 1.01.752 1.052.101.126.172.1.34-.004l.05.064-.54.42-.05-.065c.121-.116.155-.186.077-.323-.064-.11-.125-.195-.712-1.072-.083-.126-.136-.147-.35-.01l-.05-.063.396-.308 1.401.764-.357-1.575.399-.31zm-20.04-.021l.594.493-.051.063c-.193-.13-.225-.141-.383.05l-.75.903c-.112.136-.12.182.004.289l.174.148c.113.094.158.108.255.095.103-.012.224-.062.325-.117l.054.075c-.07.058-.329.234-.408.284l-1.032-.857.051-.062c.219.148.246.152.402-.037l.732-.882c.156-.189.143-.218-.02-.383l.052-.062zm-.721-.76l.076.054c-.23.473-.487.994-.722 1.47-.118.24-.116.275.009.44l-.059.055-.493-.515.059-.056c.146.12.183.117.234.012l.092-.184c.034-.07.073-.148.118-.232l-.431-.45c-.126.056-.237.102-.35.155-.18.084-.169.129-.026.32l-.059.056-.46-.482.058-.056c.142.115.189.135.446.028l1.508-.615zm22.473-1.08l.06.054c-.146.203-.148.244.005.376l.827.737c.236.2.253.203.443.033l.06.054-.517.568-.06-.055c.142-.19.135-.208-.095-.414l-.868-.795c.23.53.585 1.368.704 1.614l-.05.055c-.26-.104-1.067-.397-1.6-.587.713.716.88.872.92.909.122.107.187.069.335-.063l.06.055-.461.505-.06-.054c.1-.135.121-.21.021-.332-.082-.098-.157-.17-.885-.935-.103-.11-.159-.121-.347.051l-.06-.054.338-.372 1.511.514-.62-1.49.34-.374zm-22.75 1.312c-.243.105-.5.216-.725.31l.373.39.352-.7zm-.89-1.576l.477.609-.064.05c-.168-.173-.191-.184-.386-.03l-.902.707c-.195.153-.187.176-.06.38l-.064.05-.477-.608.064-.05c.166.17.19.182.382.03l.902-.707c.195-.153.19-.178.064-.38l.064-.05zm24.189-.57l.066.048c-.118.21-.122.235.08.38l.934.662c.203.144.223.13.383-.05l.066.047-.448.63-.066-.046c.116-.208.12-.234-.08-.376l-.934-.663c-.202-.144-.225-.132-.383.046l-.066-.047.448-.63zm-24.653-.17c.133.21.197.408.236.497-.104.079-.24.188-.35.285l-.064-.065c.132-.152.195-.274.168-.43-.01-.082-.057-.193-.116-.286-.254-.402-.686-.426-1.088-.172-.47.298-.619.733-.37 1.128.158.249.35.298.672.269l.022.088c-.138.04-.354.088-.453.099-.06-.062-.223-.224-.34-.41-.37-.582-.17-1.125.257-1.395.498-.315 1.08-.154 1.426.392zm25.223-.739l.068.043c-.104.217-.107.243.104.374l.973.605c.21.131.23.116.378-.073l.069.042-.409.657-.068-.043c.103-.214.105-.24-.103-.37l-.973-.605c-.21-.131-.232-.118-.38.07l-.068-.043.409-.657zm.581-1.09c.098.036.206.078.384.142l-.025.088c-.192-.042-.396-.055-.519.187-.101.2.01.344.144.412.177.09.325.023.544-.135.316-.228.502-.301.747-.177.27.137.357.475.189.807-.079.155-.19.266-.285.35-.082-.015-.273-.073-.421-.125l.02-.09c.198.035.48.036.615-.232.094-.185.023-.364-.144-.449-.198-.1-.332-.035-.57.129-.284.196-.484.285-.724.163-.229-.116-.348-.416-.176-.756.073-.144.183-.266.221-.314zM14.92 30.054l.18.395-.818 1.713.644-.292c.245-.11.355-.167.43-.21.115-.062.125-.14.043-.355l.073-.034.294.65-.073.033c-.095-.16-.146-.203-.27-.157-.086.036-.199.08-.443.192l-1.054.477-.045-.1.864-1.748-.657.298c-.236.108-.35.17-.425.209-.131.066-.141.15-.071.346l-.074.033-.29-.638.074-.034c.087.157.155.202.289.155.088-.03.208-.079.447-.187l.67-.304c.074-.034.114-.058.15-.132.043-.08.034-.142-.011-.276l.073-.034zm27.894-.225c.101.027.213.059.396.106l-.017.09c-.195-.025-.4-.018-.498.234-.083.21.042.342.181.397.186.073.326-.008.53-.186.292-.256.47-.347.726-.247.282.11.4.44.265.786-.064.161-.164.283-.25.376-.084-.008-.28-.048-.432-.086l.011-.092c.201.017.481-.009.591-.288.076-.194-.012-.365-.186-.433-.207-.081-.333-.004-.555.182-.264.221-.455.33-.705.231-.24-.094-.387-.381-.247-.736.059-.15.157-.282.19-.334zm-30.16-1.085c.075.168.108.206.386.228l1.623.132.043.084c-.42.317-.884.665-1.31.984-.213.16-.227.192-.19.395l-.077.024-.207-.683.078-.023c.076.173.11.187.204.116.096-.068.218-.165.374-.276l-.18-.596c-.138-.007-.258-.016-.383-.02-.198-.007-.208.039-.167.273l-.078.024-.193-.638.077-.024zm30.479.018l.077.023c-.044.237-.04.262.198.334l1.096.332c.238.071.253.052.347-.17l.077.024-.224.74-.077-.024c.044-.234.04-.26-.196-.33l-1.096-.332c-.238-.072-.255-.053-.349.166l-.077-.023.224-.74zm-29.61.374l.157.516.63-.465c-.264-.017-.543-.034-.787-.051zm30.945-2.301c.61.115.911.6.813 1.122-.103.545-.592.864-1.125.763-.507-.096-.91-.544-.797-1.143.091-.485.544-.849 1.109-.742zm-1.015.819c-.06.317.152.657.682.757.528.1.97-.117 1.047-.52.064-.343-.142-.649-.69-.752-.595-.112-.97.143-1.04.515zm-29.41-1.421l.07.427-1.233 1.442.697-.114c.265-.044.387-.07.47-.092.127-.03.156-.102.133-.332l.08-.013.115.703-.08.013c-.05-.178-.087-.234-.22-.22-.091.011-.212.025-.477.069l-1.141.187-.018-.108 1.29-1.463-.713.117c-.256.042-.383.071-.464.09-.145.03-.176.108-.16.316l-.079.013-.113-.692.08-.013c.043.174.096.236.238.224.092-.006.221-.022.48-.064l.727-.12c.08-.012.124-.025.178-.087.063-.066.07-.128.061-.27l.08-.013zm29.637-1.774l.08.004c.013.185.04.247.172.261.092.007.213.018.48.029l1.157.048-.005.11-1.559 1.17.721.03c.26.011.39.008.473.006.148 0 .194-.07.22-.277l.08.003-.028.7-.081-.003c-.007-.179-.048-.25-.188-.267-.092-.013-.222-.024-.484-.035l-.735-.03c-.081-.004-.127 0-.193.05-.074.051-.094.111-.114.252l-.081-.004.018-.432 1.5-1.162-.706-.03c-.268-.01-.392-.01-.479-.005-.13.003-.173.068-.197.298l-.08-.003.029-.713zm-29.665.803l.042.773-.08.004c-.04-.238-.052-.26-.3-.247l-1.144.063c-.248.013-.255.037-.268.277l-.08.005-.043-.772.08-.005c.04.235.052.258.297.244l1.144-.062c.248-.014.258-.037.271-.275l.08-.005zm-1.847-1.627l.081.002c.01.235.03.261.277.27l1.142.036c.251.009.264-.02.294-.25l.081.003-.03.914c-.008.26-.008.358-.007.407-.104 0-.306.004-.445.014l-.009-.09c.082-.023.152-.044.217-.082.1-.052.124-.094.13-.256l.01-.308c.002-.084-.007-.093-.09-.095l-.666-.022-.012.358c-.007.207.027.223.228.273l-.003.086-.603-.02.003-.089c.203-.03.25-.05.257-.254l.011-.358-.516-.017c-.25-.008-.263.02-.295.282l-.08-.002.025-.802zm2.038-6.742c.082.016.273.074.421.127l-.02.09c-.198-.036-.48-.036-.615.231-.094.185-.023.364.144.449.198.1.331.035.57-.128.284-.196.484-.285.723-.164.23.116.349.416.177.756-.073.144-.184.266-.222.315-.097-.037-.206-.079-.383-.143l.025-.088c.192.043.396.055.518-.186.102-.201-.01-.345-.143-.413-.178-.09-.325-.022-.544.135-.316.228-.503.302-.747.178-.27-.137-.357-.476-.189-.808.078-.154.19-.266.285-.35zm28.853-.573c.147.09.244.204.343.38l.348.619-.07.04c-.14-.203-.17-.203-.37-.091l-1.007.567c-.21.118-.214.15-.117.364l-.07.04-.371-.66c-.106-.188-.14-.324-.13-.436.01-.122.07-.235.198-.307.236-.133.453 0 .568.12-.096-.263-.09-.524.154-.662.17-.096.36-.077.524.026zm-1.082.732c-.176.099-.25.283-.115.525.04.07.073.111.105.126.026.012.058.004.138-.041l.48-.27-.071-.129c-.156-.277-.33-.327-.537-.211zm.721-.525c-.256.144-.265.387-.092.694l.068.12.51-.286c.181-.102.202-.17.102-.35-.11-.195-.324-.327-.588-.178zm-27.24-1.71l.067.045c-.118.22-.108.24.09.371l.957.639c.206.137.235.115.38-.06l.067.045-.445.668c-.226.338-.436.507-.677.562-.193.04-.419.015-.65-.139-.28-.187-.432-.454-.448-.732-.015-.274.088-.542.285-.837l.374-.562zm-.366.741c-.288.432-.14.85.28 1.13.262.175.52.219.762.106.144-.064.263-.186.37-.347.072-.108.096-.175.093-.212 0-.031-.02-.058-.114-.12l-.989-.66c-.18-.12-.282-.077-.402.103zm26.723-1.277c.022.03.038.057.058.09.112.178.134.302.063.51-.056.172-.142.363-.207.524-.041.101-.033.142.053.26l.06.083.366-.266c.199-.144.192-.178.075-.379l.065-.047.453.623-.066.048c-.161-.179-.183-.188-.381-.044l-.932.675c-.199.144-.187.175-.075.375l-.065.047-.432-.596c-.123-.17-.185-.3-.191-.43-.009-.14.05-.28.193-.383.2-.146.42-.109.62.01.042-.095.126-.309.18-.455.061-.176.088-.263.107-.359.022-.112.009-.185-.016-.248l.072-.038zm-.769 1.284c-.25.181-.22.413-.09.593.049.068.087.1.113.107.031.009.06 0 .12-.045l.573-.415-.081-.112c-.088-.122-.163-.185-.254-.208-.134-.042-.255-.012-.38.08zm-23.983-2.59l.06.054c-.109.142-.123.223-.025.326.063.068.155.159.35.334l.548.492c.06.054.099.08.18.084.091.007.144-.026.25-.122l.06.054-.29.322-1.897-.059.526.473c.2.179.296.257.366.309.103.08.177.058.342-.104l.06.054-.476.53-.06-.054c.108-.15.127-.215.034-.31-.066-.064-.153-.15-.352-.329l-.862-.773.074-.081 1.948.089-.537-.482c-.193-.174-.296-.254-.362-.305-.113-.094-.194-.07-.345.073l-.06-.054.468-.521zm24.04.555l.511.58-.06.053c-.176-.16-.2-.17-.384-.008l-.86.758c-.186.164-.18.189-.042.383l-.06.054-.512-.58.06-.054c.178.163.202.172.388.008l.86-.757c.186-.164.177-.187.038-.384l.06-.053zm-1.157-1.14l.612.575-.055.06c-.208-.172-.244-.166-.4 0l-.962 1.025.192.18c.115.108.16.127.256.097.065-.018.129-.053.23-.105l.062.06c-.133.116-.27.237-.386.348l-.049-.045c.016-.08-.01-.1-.068-.155l-.834-.782c-.058-.055-.083-.062-.152-.052l-.05-.047c.092-.1.226-.259.33-.39l.069.052c-.044.085-.084.179-.097.238-.02.089-.012.123.104.232l.21.197.961-1.025c.154-.164.16-.203-.029-.403l.056-.06zm-21.225-.855l.052.061c-.123.136-.145.181-.053.444l.531 1.54-.059.073c-.459-.257-.964-.542-1.427-.803-.233-.13-.268-.131-.439-.016l-.052-.061.541-.463.053.061c-.128.14-.127.176-.025.233.102.062.24.134.404.232l.474-.405c-.05-.128-.09-.242-.136-.358-.074-.184-.12-.175-.318-.043l-.053-.062.507-.433zm20.015-.125l.612.473-.05.064c-.203-.124-.228-.13-.378.065l-.701.905c-.152.197-.141.22.03.385l-.05.064-.61-.473.049-.064c.205.126.23.13.382-.065l.701-.906c.152-.196.14-.217-.034-.384l.05-.064zm-19.971 1.14l-.41.35.68.39c-.092-.248-.188-.511-.27-.74zm19.262-1.682c.145.094.244.217.317.32-.024.081-.103.264-.171.406l-.088-.03c.058-.193.089-.473-.162-.637-.174-.114-.36-.063-.462.094-.122.186-.072.326.065.58.164.304.23.513.084.738-.141.215-.452.3-.771.092-.135-.088-.245-.211-.289-.254.047-.093.1-.196.184-.366l.084.035c-.063.186-.098.387.13.536.188.123.343.028.425-.098.109-.166.058-.32-.075-.555-.191-.34-.244-.533-.094-.762.165-.254.512-.303.823-.1zm-17.806-.336l.045.067c-.205.167-.216.192-.08.396l.632.955c.136.205.168.2.373.093l.044.067-.644.427-.045-.067c.18-.147.2-.174.063-.381l-.649-.98c-.097-.146-.138-.167-.277-.078l-.192.123c-.122.081-.149.12-.164.216-.02.103-.006.232.017.345l-.087.03c-.035-.084-.129-.382-.154-.472l1.118-.741zm15.095-1.098l.694.343-.036.072c-.228-.08-.25-.085-.358.132l-.256.517.885.438.255-.518c.106-.214.09-.232-.11-.363l.036-.073.69.342-.035.072c-.221-.08-.248-.084-.356.133l-.512 1.038c-.108.217-.09.242.109.366l-.036.072-.69-.341.035-.073c.216.085.25.08.357-.135l.203-.412-.885-.437-.203.411c-.106.215-.086.247.112.368l-.036.072-.694-.343.036-.072c.225.085.252.083.36-.135l.512-1.037c.108-.217.088-.236-.112-.365l.035-.072zm-13.795.458c.059.06.18.218.271.346l-.068.063c-.141-.145-.37-.307-.636-.167-.184.096-.229.283-.141.45.103.196.25.22.539.224.344.004.56.047.685.284.12.228.043.542-.293.72-.143.075-.304.11-.363.128-.059-.086-.123-.183-.23-.338l.07-.057c.133.146.292.274.532.147.199-.105.19-.286.121-.42-.093-.175-.252-.205-.522-.204-.39.004-.584-.044-.712-.286-.141-.268-.017-.595.313-.768.153-.081.308-.108.434-.122zm1.095-.54l.032.074c-.207.117-.224.137-.127.362l.451 1.053c.098.228.124.23.351.16l.032.074-.71.305-.033-.074c.21-.118.227-.138.13-.366l-.452-1.053c-.098-.228-.122-.227-.353-.157l-.031-.074.71-.304zm10.807-.585l.091.026c.036.494.088 1.211.128 1.667.02.228.058.269.223.334l-.023.078-.704-.202.022-.078c.212.037.233.007.223-.107-.011-.223-.055-.833-.098-1.343-.25.315-.562.715-.793 1.027-.107.143-.081.178.139.27l-.023.079-.638-.183.023-.078c.193.028.247.017.418-.204.128-.162.777-.981 1.012-1.286zm-7.816-.325l.02.079c-.17.058-.226.117-.201.257.014.092.041.219.106.473l.184.713c.02.078.037.121.104.17.07.056.134.058.274.036l.02.079-.419.108-1.547-1.1.177.684c.067.26.103.379.133.46.04.124.115.146.342.103l.02.078-.69.178-.02-.078c.174-.066.225-.11.2-.24-.02-.09-.044-.209-.111-.469l-.289-1.12.106-.028L25.59 9.98l-.18-.699c-.065-.251-.106-.375-.132-.455-.043-.14-.123-.165-.329-.13l-.02-.078.68-.175zm5.858-.08l.76.14-.014.079c-.238-.017-.262-.01-.306.232l-.206 1.126c-.044.245-.024.26.204.328l-.014.08-.76-.14.014-.079c.24.018.265.01.31-.234l.205-1.127c.044-.244.023-.256-.208-.325l.015-.08zm-4.656-.084l.012.08c-.23.06-.252.074-.217.317l.164 1.133c.035.246.06.254.298.246l.011.08-.765.11-.012-.08c.233-.06.255-.074.22-.32l-.164-1.134c-.036-.245-.06-.25-.3-.242l-.012-.08.765-.11zm2.523-.16c.037.003.069.009.106.015.209.032.316.097.427.286.094.156.182.346.261.5.05.097.086.118.232.13l.101.009.039-.451c.02-.245-.01-.262-.238-.305l.007-.08.768.066-.007.08c-.24.006-.262.015-.283.26l-.099 1.147c-.02.244.01.256.235.301l-.007.08-.733-.063c-.21-.018-.349-.056-.452-.137-.111-.085-.178-.22-.162-.396.02-.247.192-.39.413-.463l-.077-.153c-.048-.092-.104-.198-.15-.28-.092-.162-.14-.239-.2-.316-.071-.09-.135-.127-.2-.15l.02-.08zm-.23.962c.025.608-.456.992-1.033 1.015-.294.012-.513-.036-.603-.047-.01-.107-.031-.282-.062-.463l.086-.02c.08.242.167.342.351.395.067.02.186.03.27.027.441-.018.714-.333.692-.86-.018-.459-.273-.905-.833-.882-.098.004-.186.028-.243.06-.059.036-.095.07-.09.188l.01.236c.008.21.032.233.31.242l.003.083-.74.03-.004-.083c.178-.03.188-.048.181-.218l-.01-.242c-.004-.101-.01-.196-.028-.273.177-.048.408-.121.65-.131.655-.027 1.07.363 1.093.943zm.887.12c-.12.074-.175.185-.188.34-.027.308.168.437.389.456.083.008.133 0 .155-.015.027-.018.038-.046.045-.121l.06-.704-.137-.012c-.15-.013-.247.002-.324.056z"/>
        <path fill="#002A5A" d="M25.575 16.845c0 .242.188.468.514.658-.168-.147-.262-.31-.262-.482 0-.653 1.355-1.183 3.025-1.183 1.671 0 3.025.53 3.025 1.183 0 .176-.097.342-.273.492.336-.192.532-.421.532-.668 0-.213-.148-.415-.407-.59-.102-.068-.221-.133-.356-.193l-2.585-1.407-2.54 1.448c-.098.048-.188.1-.267.152-.259.175-.406.377-.406.59"/>
        <path fill="#00F" d="M31.66 18.203l.045.127c0-.043-.015-.085-.044-.127M26.149 18.203c-.03.042-.045.084-.045.127l.045-.127zM31.66 19.23l.045.126c0-.043-.015-.085-.044-.127M26.149 19.23c-.03.041-.045.083-.045.126l.045-.127z"/>
        <path fill="#002A5A" d="M28.183 18.24c.215-.022.44-.033.672-.033.232 0 .457.011.673.033v.933c-.219-.018-.444-.028-.675-.028-.23 0-.453.01-.67.028v-.933zm0-1.027c.215-.021.44-.033.672-.033.232 0 .457.012.673.033v.84c-.216-.021-.44-.033-.673-.033-.231 0-.457.012-.672.033v-.84zm-2.608 3.906c.5-.572 1.778-.98 3.278-.98 1.505 0 2.788.41 3.283.987v-.996c-.362-.42-1.143-.751-2.124-.9v-.923c.893.164 1.532.512 1.617.922.006-.03.01-.061.01-.093 0-.45-.667-.839-1.627-1.015v-.84c.893.164 1.532.511 1.617.922.006-.03.01-.062.01-.093 0-.45-.667-.84-1.627-1.015v-.706h-.484v.638c-.216-.021-.44-.033-.673-.033-.231 0-.457.012-.672.033v-.638H27.7v.706c-.96.176-1.627.564-1.627 1.015 0 .031.004.062.01.093.085-.41.724-.758 1.617-.922v.84c-.96.176-1.627.564-1.627 1.015 0 .032.004.063.01.093.085-.41.724-.758 1.617-.922v.923c-.978.147-1.76.476-2.124.894v.995z"/>
        <g>
            <path fill="#002A5A" d="M9.761 10.417v.831c.59-.632 2.099-1.083 3.869-1.083 1.777 0 3.29.454 3.875 1.09v-.831c-.585-.636-2.099-1.09-3.875-1.09-1.77 0-3.28.45-3.869 1.083" transform="translate(15 11)"/>
            <path fill="#002A5A" d="M13.64 21.839c2.138 0 3.92.569 4.315 1.323l-1.06-10.923h-.014c0-.817-1.45-1.479-3.24-1.479-1.79 0-3.24.662-3.24 1.479 0 .028.001.055.005.083L9.312 23.156h.017c.402-.75 2.18-1.317 4.312-1.317z" transform="translate(15 11)"/>
            <path fill="#B80506" d="M.535 17.427l.923.23.993.246c.05.13.102.259.156.388.489 1.155 1.149 2.215 1.967 3.16l-.27.976-.251.905-.06-.059c-1.252-1.251-2.234-2.71-2.921-4.333-.21-.495-.389-1-.537-1.513zm26.211-.05c-.151.53-.335 1.052-.551 1.563-.647 1.53-1.557 2.911-2.706 4.112l-.245-.856-.3-1.046c.703-.868 1.278-1.825 1.715-2.86.062-.144.12-.29.175-.437l1.03-.256zM.422 10.254l.817.782.598.573c-.113.664-.17 1.34-.17 2.025 0 .73.065 1.448.193 2.153l-.724.751-.66.684C.16 16.06 0 14.858 0 13.633c0-1.152.141-2.283.422-3.38zm26.444.085c.266 1.07.4 2.173.4 3.295 0 1.183-.149 2.343-.444 3.468l-.628-.65-.765-.794c.113-.663.17-1.34.17-2.024 0-.65-.05-1.291-.153-1.923l.73-.705zM3.932 4.055l.346 1 .273.787c-.807.939-1.46 1.99-1.944 3.134-.096.227-.185.456-.266.688l-.826.24-1.085.316c.167-.643.38-1.276.642-1.894.675-1.597 1.638-3.033 2.86-4.271zm19.677.286c1.093 1.171 1.962 2.51 2.586 3.985.246.583.45 1.179.613 1.785l-.922-.263-.996-.285c-.072-.197-.148-.393-.23-.587-.422-.995-.97-1.92-1.637-2.762l.33-1.056zM17.483.55c.494.145.98.319 1.457.52 1.624.688 3.082 1.67 4.333 2.922l.101.102-.828.185-1.14.256c-.934-.8-1.978-1.448-3.115-1.929l-.264-.108-.28-1zm-7.19-.14l-.301 1.124-.205.763c-.273.093-.544.196-.811.309-1.058.447-2.035 1.038-2.918 1.762L5.04 4.174l-1.03-.198c1.247-1.244 2.7-2.22 4.315-2.904C8.968.8 9.625.58 10.294.412zM13.634 0c1.248 0 2.47.166 3.652.494l-.692.708-.67.683c-.748-.145-1.513-.218-2.29-.218-.652 0-1.297.052-1.93.154l-.586-.586-.822-.824C11.379.138 12.495 0 13.633 0z" transform="translate(15 11)"/>
            <path fill="#002A5A" d="M21.341 22.786c-.853.72-1.796 1.314-2.817 1.772-.69-.998-2.62-1.716-4.89-1.716-2.272 0-4.2.718-4.891 1.716-.925-.415-1.787-.941-2.575-1.572l-1.048.271-.904.234c1.2 1.149 2.582 2.057 4.11 2.704.21.088.42.17.632.248.539.202 1.05.357 1.59.473 1.005.233 2.036.35 3.085.35 1.238 0 2.45-.163 3.624-.486.362-.098.708-.21 1.051-.337.212-.077.423-.16.632-.248 1.624-.687 3.082-1.67 4.333-2.922l.005-.004-.863-.215-1.074-.268z" transform="translate(15 11)"/>
            <path fill="#B80506" d="M21.345 22.79c-.853.72-1.796 1.314-2.817 1.771-1.119.47-2.62 1.028-4.89 1.028-2.272 0-3.684-.602-4.891-1.028-.925-.414-1.787-.94-2.575-1.571l-1.048.271-.904.234c1.2 1.148 2.582 2.057 4.11 2.703.21.089.42.171.632.249.539.201 1.05.357 1.59.473 1.005.233 2.036.35 3.085.35 1.238 0 2.45-.163 3.624-.486.362-.098.708-.21 1.051-.337.212-.077.423-.16.632-.249 1.624-.686 3.082-1.67 4.333-2.92l.004-.005-.862-.215-1.074-.268z" transform="translate(15 11)"/>
        </g>
        <path fill="#FFF" d="M21.267 25.11h3.683v-1.263h-3.67c-.973 0-1.762.79-1.762 1.763v3.696h1.29v-2.111h4.128v-1.237H20.81v-.388c0-.254.205-.46.458-.46M25.743 28.015h4.114c.223 0 .403-.18.403-.403 0-.223-.18-.404-.403-.404h-2.422c-.89 0-1.611-.721-1.611-1.61v-.14c0-.89.72-1.611 1.61-1.611h4.386v1.29h-4.262c-.23 0-.417.187-.417.418 0 .23.187.416.417.416h2.595c.92 0 1.667.747 1.667 1.667 0 .921-.746 1.668-1.667 1.668h-4.41v-1.291zM34.565 29.373h3.628v-1.425h-3.638c-.263 0-.476-.213-.476-.476v-1.845c0-.263.213-.476.476-.476h3.584V23.78h-3.574c-.952 0-1.723.771-1.723 1.723v2.147c0 .951.771 1.723 1.723 1.723"/>
    </g>
</svg>
