<svg xmlns="http://www.w3.org/2000/svg" width="22" height="50" viewBox="0 0 22 50">
    <defs>
        <linearGradient id="prefix__a" x1="47.891%" x2="47.891%" y1="2.391%" y2="100%">
            <stop offset="0%" stop-color="#3EAAFF"/>
            <stop offset="100%" stop-color="#5AB7FF"/>
        </linearGradient>
    </defs>
    <path fill="url(#prefix__a)" fill-rule="evenodd" d="M11.1 50c1.949 0 3.702-.418 5.257-1.253 1.555-.836 2.797-2.02 3.725-3.552.325-.557.592-1.091.801-1.602.21-.51.383-1.137.523-1.88.092-.696.162-1.567.208-2.611.047-1.045.07-2.38.07-4.005 0-1.95-.023-3.563-.07-4.84-.046-1.276-.116-2.332-.208-3.168-.14-.836-.302-1.509-.488-2.02-.186-.51-.441-1.02-.766-1.531-.603-.929-1.44-1.695-2.507-2.298-1.068-.604-2.228-.906-3.482-.906-.789 0-1.427.058-1.915.174-.487.116-.847.267-1.08.453l-.139-.14L19.107 0H11.17L1.837 24.93c-.232.65-.44 1.265-.626 1.846-.186.58-.325 1.218-.418 1.915-.093.743-.163 1.613-.21 2.611-.046.998-.069 2.263-.069 3.795v.436c.005 1.43.028 2.62.07 3.569.046 1.044.14 1.915.278 2.611.093.743.244 1.37.453 1.88.209.511.5 1.045.87 1.602.929 1.486 2.16 2.658 3.691 3.517C7.408 49.57 9.15 50 11.1 50zm0-7.103c-.93 0-1.742-.325-2.438-.975-.697-.65-1.045-1.509-1.045-2.577v-9.192c0-1.068.348-1.926 1.045-2.576.696-.65 1.509-.975 2.437-.975.929 0 1.741.325 2.437.975.697.65 1.045 1.508 1.045 2.576v9.192c0 1.068-.348 1.927-1.045 2.577-.696.65-1.508.975-2.437.975z"/>
</svg>
