<svg xmlns="http://www.w3.org/2000/svg" width="22" height="50" viewBox="0 0 22 50">
    <defs>
        <linearGradient id="prefix__a" x1="47.891%" x2="47.891%" y1="2.391%" y2="100%">
            <stop offset="0%" stop-color="#3EAAFF"/>
            <stop offset="100%" stop-color="#5AB7FF"/>
        </linearGradient>
    </defs>
    <path fill="url(#prefix__a)" fill-rule="evenodd" d="M10.53 50c2.071 0 3.821-.426 5.248-1.278 1.428-.851 2.532-1.876 3.315-3.073.369-.552.68-1.082.933-1.588.253-.507.448-1.128.587-1.865.138-.737.241-1.6.31-2.59.07-.99.104-2.244.104-3.763 0-1.842-.023-3.396-.07-4.662-.045-1.266-.183-2.337-.414-3.211-.23-.875-.587-1.635-1.07-2.28-.483-.644-1.14-1.289-1.968-1.933.829-.69 1.485-1.347 1.968-1.968.483-.622.84-1.324 1.07-2.107.23-.782.369-1.68.415-2.693.046-1.013.069-2.256.069-3.73 0-1.335-.035-2.474-.104-3.418-.069-.944-.218-1.76-.449-2.451-.23-.691-.506-1.313-.828-1.865-.323-.553-.714-1.128-1.174-1.727-.921-1.197-2.072-2.129-3.453-2.797C13.637.334 12.14 0 10.529 0 8.92 0 7.423.334 6.042 1.001c-1.382.668-2.533 1.6-3.453 2.797-.46.599-.84 1.174-1.14 1.727-.3.552-.564 1.174-.794 1.865-.23.69-.391 1.507-.483 2.451-.093.944-.139 2.083-.139 3.419 0 1.473.023 2.716.07 3.729.046 1.013.184 1.91.414 2.693.23.783.587 1.485 1.07 2.107.484.621 1.14 1.277 1.969 1.968-.83.644-1.485 1.289-1.969 1.934-.483.644-.84 1.404-1.07 2.279-.23.874-.368 1.945-.415 3.21C.055 32.448.032 34 .032 35.844c0 1.519.035 2.773.104 3.763.07.99.173 1.853.31 2.59.139.737.335 1.358.588 1.865.253.506.564 1.036.932 1.588.783 1.197 1.888 2.222 3.315 3.073C6.708 49.574 8.458 50 10.53 50zm0-28.867c-.921 0-1.727-.334-2.417-1.002-.691-.667-1.036-1.485-1.036-2.451v-7.183c0-.967.345-1.784 1.036-2.451.69-.668 1.496-1.002 2.417-1.002.92 0 1.726.334 2.417 1.002.69.667 1.036 1.484 1.036 2.451v7.183c0 .966-.346 1.784-1.036 2.451-.69.668-1.497 1.002-2.417 1.002zm0 21.823c-.921 0-1.727-.334-2.417-1.002-.691-.667-1.036-1.484-1.036-2.451v-9.669c0-.967.345-1.784 1.036-2.451.69-.668 1.496-1.002 2.417-1.002.92 0 1.726.334 2.417 1.002.69.667 1.036 1.484 1.036 2.451v9.669c0 .967-.346 1.784-1.036 2.451-.69.668-1.497 1.002-2.417 1.002z"/>
</svg>
