<svg xmlns="http://www.w3.org/2000/svg" width="22" height="50" viewBox="0 0 22 50">
    <defs>
        <linearGradient id="prefix__a" x1="47.891%" x2="47.891%" y1="2.391%" y2="100%">
            <stop offset="0%" stop-color="#3EAAFF"/>
            <stop offset="100%" stop-color="#5AB7FF"/>
        </linearGradient>
    </defs>
    <path fill="url(#prefix__a)" fill-rule="evenodd" d="M10.542 50l9.332-24.93c.232-.65.43-1.265.592-1.846.162-.58.313-1.242.452-1.984.093-.697.163-1.544.21-2.542.046-.998.069-2.263.069-3.795 0-1.625-.023-2.96-.07-4.005-.046-1.044-.116-1.938-.209-2.68-.139-.697-.325-1.3-.557-1.811-.232-.511-.51-1.045-.836-1.602-.928-1.486-2.158-2.658-3.69-3.517S12.562 0 10.612 0c-1.95 0-3.703.418-5.258 1.253C3.8 2.09 2.557 3.273 1.63 4.805c-.325.557-.592 1.091-.801 1.602-.21.51-.36 1.114-.453 1.81-.14.743-.232 1.637-.278 2.681-.047 1.045-.07 2.38-.07 4.005v.48c.004 1.736.027 3.189.07 4.36.046 1.276.139 2.332.278 3.168.093.836.232 1.52.418 2.054.186.534.44 1.033.766 1.497.603.929 1.44 1.695 2.507 2.298 1.068.604 2.228.906 3.482.906.789 0 1.427-.058 1.915-.174.487-.116.847-.267 1.08-.453l.138.14L2.603 50h7.94zm.07-26.602c-.929 0-1.741-.325-2.437-.975-.697-.65-1.045-1.508-1.045-2.576v-9.192c0-1.068.348-1.927 1.045-2.577.696-.65 1.508-.975 2.437-.975.928 0 1.74.325 2.437.975.697.65 1.045 1.509 1.045 2.577v9.192c0 1.068-.348 1.926-1.045 2.576-.696.65-1.509.975-2.437.975z"/>
</svg>
